<svg xmlns="http://www.w3.org/2000/svg" style="enable-background:new 0 0 2000 2000;" viewBox="180.88 818.27 1638.24 363.48">
  <defs>
    <style type="text/css">
	.st0{fill:#ffffff;}
	.st1{fill:url(#SVGID_1_);}
</style>
  </defs>
  <g>
    <g>
      <g>
        <path class="st0" d="M415.88,850.5c-10.1,0-18.49,3.42-25.16,10.26c-6.68,6.84-10.01,15.31-10.01,25.4 c0,10.1,3.34,18.57,10.01,25.41c6.67,6.84,15.06,10.26,25.16,10.26c10.42,0,18.89-3.42,25.4-10.26 c6.51-6.84,9.77-15.31,9.77-25.41c0-10.09-3.26-18.56-9.77-25.4C434.76,853.92,426.3,850.5,415.88,850.5z" style=""/>
        <path class="st0" d="M384.12,940.89H299.6v-35.18c0-8.79,2.36-15.71,7.08-20.76c4.72-5.05,11.31-7.57,19.79-7.57 c4.56,0,8.55,0.57,11.97,1.71c3.42,1.15,6.6,2.86,9.53,5.13l36.64-44.95c-8.47-6.84-17.34-12.05-26.63-15.63 c-9.28-3.58-19.79-5.37-31.51-5.37c-18.56,0-34.61,3.99-48.12,11.97c-13.52,7.98-24.02,18.73-31.51,32.24 c-7.5,13.52-11.24,28.75-11.24,45.68v32.73h-54.72v56.18h54.72v179.79h64V997.07h84.52v179.79h64V940.89H414.9H384.12z" style=""/>
        <path class="st0" d="M665.23,961.27c-6.18-5.94-13.25-10.96-21.25-15.01C630.46,939.42,615.23,936,598.3,936 c-22.15,0-41.77,5.37-58.87,16.12c-17.1,10.75-30.62,25.41-40.55,43.97c-9.94,18.56-14.9,39.57-14.9,63.02 c0,23.13,4.96,43.97,14.9,62.54c9.93,18.56,23.53,33.22,40.79,43.97c17.26,10.75,36.8,16.12,58.63,16.12 c16.93,0,32.24-3.59,45.92-10.75c8.16-4.27,15.31-9.49,21.5-15.62v21.48h63.51V823.63h-64V961.27z M640.56,1114.57 c-8.96,5.37-19.47,8.06-31.51,8.06c-11.4,0-21.66-2.69-30.78-8.06c-9.12-5.37-16.21-12.86-21.25-22.47 c-5.05-9.6-7.57-20.76-7.57-33.47c0-12.37,2.52-23.28,7.57-32.73c5.05-9.44,12.05-16.93,21.01-22.47 c8.95-5.54,19.46-8.31,31.51-8.31c11.72,0,22.06,2.69,31.02,8.06c8.95,5.37,15.95,12.87,21.01,22.47 c5.05,9.61,7.57,20.6,7.57,32.98c0,12.7-2.53,23.86-7.57,33.47C656.51,1101.7,649.51,1109.19,640.56,1114.57z" style=""/>
        <path class="st0" d="M947.37,950.9c-17.43-10.26-37.54-15.39-60.34-15.39c-23.13,0-44.14,5.46-63.02,16.37 c-18.89,10.92-33.79,25.57-44.7,43.97c-10.92,18.41-16.37,39.33-16.37,62.78c0,23.78,5.62,44.95,16.86,63.51 c11.24,18.56,26.46,33.15,45.68,43.73c19.21,10.59,41.2,15.88,65.95,15.88c19.21,0,37.05-3.42,53.5-10.26 c16.44-6.84,30.37-16.93,41.77-30.29l-37.62-37.62c-7.17,8.14-15.63,14.25-25.41,18.32c-9.77,4.08-20.69,6.11-32.73,6.11 c-13.36,0-25.08-2.85-35.18-8.55c-10.1-5.7-17.83-13.84-23.21-24.43c-2.13-4.2-3.83-8.71-5.11-13.5l172.44-0.42 c1.3-5.54,2.2-10.51,2.69-14.9c0.49-4.4,0.73-8.71,0.73-12.95c0-22.47-4.97-42.58-14.9-60.34 C978.47,975.17,964.79,961.16,947.37,950.9z M853.81,997.31c9.44-5.69,20.52-8.55,33.22-8.55c12.05,0,22.23,2.53,30.54,7.57 c8.3,5.05,14.66,12.3,19.05,21.74c2.11,4.55,3.78,9.63,5.03,15.23l-114.21,0.33c1.18-4.39,2.73-8.52,4.63-12.38 C837.11,1010.99,844.36,1003.02,853.81,997.31z" style=""/>
        <rect x="1035.79" y="823.63" class="st0" width="64" height="353.22" style=""/>
        <path class="st0" d="M1179.81,829.49c-10.43,0-19.05,3.59-25.89,10.75c-6.84,7.17-10.26,15.8-10.26,25.89 c0,10.43,3.42,19.14,10.26,26.14c6.84,7.01,15.47,10.5,25.89,10.5c10.75,0,19.46-3.5,26.14-10.5c6.67-7,10.01-15.71,10.01-26.14 c0-10.09-3.34-18.73-10.01-25.89C1199.27,833.08,1190.56,829.49,1179.81,829.49z" style=""/>
        <rect x="1147.57" y="940.89" class="st0" width="64.49" height="235.97" style=""/>
        <path class="st0" d="M1400.14,1116.52c-8.63,3.75-18.32,5.62-29.07,5.62c-11.72,0-22.23-2.69-31.51-8.06 c-9.28-5.37-16.61-12.86-21.98-22.47c-5.37-9.6-8.06-20.6-8.06-32.98c0-12.7,2.69-23.7,8.06-32.98 c5.37-9.28,12.7-16.61,21.98-21.98s19.79-8.06,31.51-8.06c10.42,0,19.95,1.79,28.58,5.37c8.63,3.59,16.04,8.79,22.23,15.63 l41.04-41.53c-11.4-12.7-24.92-22.47-40.55-29.31c-15.63-6.84-32.73-10.26-51.3-10.26c-23.78,0-45.36,5.46-64.73,16.37 c-19.38,10.92-34.61,25.65-45.68,44.21c-11.08,18.56-16.61,39.57-16.61,63.02c0,23.13,5.54,43.97,16.61,62.54 c11.07,18.56,26.21,33.22,45.43,43.97c19.21,10.75,40.87,16.12,64.98,16.12c18.56,0,35.66-3.42,51.3-10.26 c15.63-6.84,29.47-16.77,41.53-29.8l-41.53-41.53C1416.18,1107.32,1408.77,1112.78,1400.14,1116.52z" style=""/>
        <path class="st0" d="M1651.3,940.89v22.52c-6.49-6.88-14.12-12.62-22.96-17.15c-13.36-6.84-28.5-10.26-45.43-10.26 c-21.5,0-40.88,5.37-58.14,16.12c-17.27,10.75-30.78,25.41-40.55,43.97c-9.77,18.56-14.66,39.57-14.66,63.02 c0,23.13,4.89,43.97,14.66,62.54c9.77,18.56,23.28,33.22,40.55,43.97c17.26,10.75,36.64,16.12,58.14,16.12 c16.93,0,32.08-3.5,45.43-10.5c8.84-4.63,16.48-10.4,22.96-17.25v22.87h63.51V940.89H1651.3z M1638.11,1104.79 c-11.08,11.89-25.57,17.83-43.48,17.83c-11.72,0-22.07-2.69-31.02-8.06c-8.96-5.37-15.96-12.86-21.01-22.47 c-5.05-9.6-7.57-20.76-7.57-33.47c0-12.37,2.52-23.37,7.57-32.98c5.05-9.6,12.05-17.1,21.01-22.47 c8.95-5.37,19.3-8.06,31.02-8.06c12.05,0,22.55,2.69,31.51,8.06c8.95,5.37,15.96,12.87,21.01,22.47 c5.05,9.61,7.57,20.6,7.57,32.98C1654.72,1077.52,1649.18,1092.91,1638.11,1104.79z" style=""/>
      </g>
    </g>
    <linearGradient id="SVGID_1_" gradientUnits="userSpaceOnUse" x1="1753.8463" y1="1196.8408" x2="1800.3414" y2="1112.8134">
      <stop offset="0" style="stop-color:#03598A"/>
      <stop offset="0.7564" style="stop-color:#017A86"/>
      <stop offset="1" style="stop-color:#008684"/>
    </linearGradient>
    <circle class="st1" cx="1782.48" cy="1145.1" r="36.64"/>
  </g>
</svg>